<svg width="40" height="41" viewBox="0 0 40 41" fill="none" xmlns="http://www.w3.org/2000/svg">
<g clip-path="url(#clip0_1350_32648)">
<g filter="url(#filter0_ii_1350_32648)">
<rect y="0.5" width="40" height="40" fill="#0ABD9C"/>
</g>
<path d="M11.4803 26.0371C11.326 25.188 11.8892 24.3747 12.7383 24.2204L26.446 21.7294C27.2951 21.5751 28.1084 22.1384 28.2627 22.9874L29.6405 30.5705C29.7948 31.4195 29.2316 32.2329 28.3826 32.3872L14.6751 34.8786C13.8261 35.0329 13.0127 34.4697 12.8584 33.6206L11.4803 26.0371Z" fill="#FADB04"/>
<path d="M11.4803 26.0371C11.326 25.188 11.8892 24.3747 12.7383 24.2204L26.446 21.7294C27.2951 21.5751 28.1084 22.1384 28.2627 22.9874L29.6405 30.5705C29.7948 31.4195 29.2316 32.2329 28.3826 32.3872L14.6751 34.8786C13.8261 35.0329 13.0127 34.4697 12.8584 33.6206L11.4803 26.0371Z" stroke="#141526" stroke-width="0.15625" stroke-linecap="round" stroke-linejoin="round"/>
<path d="M11.6188 26.7707L28.4013 23.7206L28.7715 25.7612L11.9898 28.8101L11.6188 26.7707Z" fill="#656769" stroke="#141526" stroke-width="0.15625" stroke-linecap="round" stroke-linejoin="round"/>
<path d="M15.1453 29.4113L27.8433 27.104L28.0902 28.464L15.3922 30.7712L15.1453 29.4113Z" fill="white" stroke="#141526" stroke-width="0.15625" stroke-linecap="round" stroke-linejoin="round"/>
<path d="M25.3074 29.9056L28.2538 29.3703L28.5836 31.1835L25.6368 31.7191L25.3074 29.9056Z" fill="#DAEDF7" stroke="#141526" stroke-width="0.15625" stroke-linecap="round" stroke-linejoin="round"/>
<path d="M15.8564 32.0874L19.7157 31.3872M21.3026 31.1002L23.1163 30.7723" stroke="#141526" stroke-width="0.15625" stroke-linecap="round" stroke-linejoin="round"/>
<mask id="mask0_1350_32648" style="mask-type:alpha" maskUnits="userSpaceOnUse" x="0" y="19" width="40" height="22">
<path d="M0 33.3291C0 28.4286 0 25.9784 0.953693 24.1067C1.79258 22.4603 3.13116 21.1217 4.77758 20.2828C6.64931 19.3291 9.09954 19.3291 14 19.3291H26C30.9005 19.3291 33.3507 19.3291 35.2224 20.2828C36.8688 21.1217 38.2074 22.4603 39.0463 24.1067C40 25.9784 40 28.4286 40 33.3291V40.501H0V33.3291Z" fill="url(#paint0_linear_1350_32648)"/>
<path d="M0 33.3291C0 28.4286 0 25.9784 0.953693 24.1067C1.79258 22.4603 3.13116 21.1217 4.77758 20.2828C6.64931 19.3291 9.09954 19.3291 14 19.3291H26C30.9005 19.3291 33.3507 19.3291 35.2224 20.2828C36.8688 21.1217 38.2074 22.4603 39.0463 24.1067C40 25.9784 40 28.4286 40 33.3291V40.501H0V33.3291Z" fill="url(#paint1_linear_1350_32648)" fill-opacity="0.2"/>
</mask>
<g mask="url(#mask0_1350_32648)">
<path d="M13.1841 42.0264L13.0867 42.0189L13.0867 42.0189L13.0867 42.0192L13.0866 42.0203L13.0863 42.0249L13.0848 42.0433L13.0786 42.1155C13.073 42.1789 13.0644 42.2721 13.0524 42.3909C13.0284 42.6286 12.9907 42.9688 12.9362 43.3784C12.8273 44.198 12.6512 45.2942 12.3827 46.4026C11.8541 48.5842 10.6354 50.0483 4.95341 54.1609C1.6398 53.4496 0.270526 51.2002 -0.273309 49.1152C-0.546802 48.0666 -0.610743 47.0608 -0.606069 46.3164C-0.603733 45.9445 -0.584269 45.6384 -0.565437 45.4256C-0.556023 45.3193 -0.546769 45.2362 -0.539902 45.1801C-0.538278 45.1668 -0.536787 45.155 -0.53546 45.1447L-0.521419 45.1376C-0.482839 45.1179 -0.427125 45.0892 -0.358358 45.0531C-0.22086 44.9807 -0.0309824 44.8785 0.178579 44.7587C0.595552 44.5203 1.09813 44.2082 1.41838 43.9222C1.73364 43.6406 2.03287 43.333 2.21652 42.8726C2.40005 42.4125 2.46391 41.811 2.33281 40.9468C2.07535 39.2496 1.91225 36.2107 3.05052 33.0196C4.18518 29.8385 6.30858 28.2259 8.20683 27.0179L8.20702 27.0178C9.15495 26.4114 9.97721 26.0852 10.5844 26.0272C10.8875 25.9982 11.1288 26.0368 11.3051 26.1321C11.4782 26.2256 11.5973 26.3783 11.6516 26.5989C11.6728 26.6852 11.6437 26.8265 11.5432 27.0279C11.4455 27.224 11.2906 27.4571 11.0926 27.7166C10.6969 28.2353 10.139 28.8469 9.55234 29.4585C9.14829 29.8797 8.73233 30.299 8.34767 30.6868C8.17386 30.862 8.00644 31.0308 7.84939 31.1904C7.3491 31.6988 6.94702 32.1209 6.79242 32.3526C6.49219 32.8028 6.35724 33.1877 6.37828 33.4676C6.38903 33.6106 6.44133 33.7326 6.54033 33.8154C6.63866 33.8976 6.76971 33.9299 6.91626 33.921M13.1841 42.0264L13.13 41.9451L13.1302 41.9449L13.1309 41.9444L13.1339 41.9424L13.1458 41.9345L13.1924 41.9033C13.2332 41.8759 13.2931 41.8356 13.3693 41.784C13.5219 41.6808 13.74 41.5324 14.0019 41.3518C14.526 40.9906 15.2253 40.5007 15.9272 39.9856C16.6294 39.4703 17.3325 38.9309 17.8648 38.4706C18.1311 38.2402 18.3526 38.0314 18.5094 37.8566C18.5878 37.7691 18.6483 37.6919 18.6899 37.6264C18.7328 37.5588 18.7501 37.5121 18.7531 37.4839C18.7911 37.1242 18.6164 36.9149 18.4259 36.7894C18.3291 36.7257 18.2288 36.6845 18.1521 36.6592C18.1139 36.6467 18.0821 36.6382 18.0601 36.633C18.0492 36.6304 18.0407 36.6286 18.0352 36.6274L18.0293 36.6263L18.0281 36.6261L18.0281 36.6261L18.028 36.6261L18.028 36.626L18.0279 36.626L17.8358 36.593L17.9775 36.4589L17.9775 36.4589L17.9775 36.4589L17.9779 36.4585L17.9797 36.4568L17.9872 36.4495C17.9938 36.4429 18.0038 36.4329 18.0164 36.4199C18.0417 36.3937 18.0775 36.3552 18.1191 36.3067C18.2026 36.2093 18.3081 36.0727 18.3984 35.9147C18.582 35.5931 18.6852 35.2151 18.4706 34.8895C18.425 34.8204 18.3361 34.7558 18.1954 34.7029C18.0561 34.6505 17.876 34.6132 17.6623 34.592C17.2351 34.5495 16.6884 34.5722 16.0992 34.653C14.9191 34.8149 13.5915 35.2064 12.7401 35.7483C12.4203 35.9519 12.1376 36.1393 11.8845 36.3071C11.7949 36.3665 11.709 36.4234 11.6265 36.4778C11.3124 36.6846 11.0461 36.8543 10.8155 36.9729C10.5859 37.091 10.3814 37.164 10.1922 37.1671C9.99692 37.1704 9.82797 37.0991 9.67345 36.9511L9.67278 36.9505C9.49953 36.7814 9.48269 36.549 9.55062 36.3111C9.61818 36.0745 9.77337 35.8138 9.97511 35.5556C10.3796 35.0378 10.9923 34.503 11.5542 34.1511L11.5546 34.1509C11.7412 34.0351 12.0272 33.8758 12.3699 33.685C12.5383 33.5912 12.7204 33.4897 12.9111 33.3821C13.4923 33.0541 14.1586 32.6657 14.7792 32.2508C15.4007 31.8352 15.9716 31.3962 16.365 30.9678C16.7633 30.534 16.9559 30.1371 16.8818 29.7991C16.8066 29.456 16.5683 29.2576 16.2009 29.1703C15.8274 29.0817 15.3302 29.112 14.7716 29.2308C13.6567 29.4677 12.3385 30.0476 11.3731 30.6469C10.4071 31.2495 9.44246 32.051 8.64868 32.7105L8.64491 32.7137C8.24892 33.0426 7.89427 33.3372 7.60566 33.5512C7.46136 33.6582 7.33122 33.7468 7.21897 33.81C7.11011 33.8712 7.00576 33.9159 6.91626 33.921M13.1841 42.0264L13.1299 41.9451L13.0904 41.9715L13.0867 42.0189L13.1841 42.0264ZM6.91626 33.921C6.91617 33.921 6.91609 33.921 6.916 33.921L6.91055 33.8235L6.91653 33.921C6.91644 33.921 6.91635 33.921 6.91626 33.921Z" fill="#6DA0E1" stroke="#141526" stroke-width="0.195312"/>
<path d="M12.3963 39.7896C12.3809 39.7847 12.3732 39.7823 12.3602 39.7698C12.2982 39.7248 12.2892 39.6458 12.3341 39.5838C13.3448 38.2004 15.1963 37.1576 17.8486 36.5021C17.9224 36.483 17.9921 36.5303 18.006 36.5939C18.0251 36.6676 17.9778 36.7374 17.9141 36.7513C15.3254 37.3929 13.5192 38.3991 12.5486 39.7359C12.5061 39.7903 12.4502 39.8065 12.3963 39.7896Z" fill="#324840"/>
<path d="M17.7877 37.8207C17.6491 37.777 17.5404 37.6921 17.477 37.5706C17.3661 37.358 17.3999 37.0892 17.5601 36.9027C17.718 36.7238 17.9493 36.6611 18.2035 36.741C18.2112 36.7435 18.2189 36.7459 18.2266 36.7483C18.4735 36.8514 18.6204 37.0838 18.5891 37.3448C18.5578 37.6058 18.3672 37.8082 18.0973 37.8588C18.0973 37.8588 18.0896 37.8564 18.0872 37.8641C17.9721 37.8533 17.8724 37.8473 17.7877 37.8207ZM18.1284 36.9798C17.9358 36.9192 17.8297 36.9874 17.7722 37.0625C17.6796 37.1688 17.6619 37.3325 17.72 37.4439C17.7886 37.5755 17.9447 37.5907 18.0646 37.5861C18.2453 37.5498 18.3197 37.4209 18.3305 37.3058C18.3312 37.196 18.2905 37.0562 18.1284 36.9798Z" fill="#324840"/>
<path d="M17.6743 36.1359C17.6512 36.1286 17.628 36.1213 17.6074 36.1063L17.5997 36.1039C17.2027 35.886 16.9798 35.545 16.9993 35.1872C17.0152 34.9213 17.162 34.6966 17.3876 34.5983C17.6638 34.4736 18.0153 34.5672 18.3442 34.8399C18.3519 34.8424 18.3495 34.8501 18.3572 34.8525C18.5966 35.114 18.5153 35.5878 18.3033 35.8851C18.1208 36.1155 17.8976 36.2061 17.6743 36.1359ZM17.7234 35.872C17.888 35.9407 18.0212 35.8133 18.0835 35.7229C18.2481 35.4953 18.2834 35.1679 18.1662 35.0294C17.9175 34.8242 17.6763 34.7568 17.4912 34.834C17.3543 34.8926 17.2674 35.0345 17.2598 35.1929C17.2464 35.4511 17.4193 35.7086 17.7234 35.872Z" fill="#324840"/>
<path d="M15.7172 30.8376C15.3167 30.7116 15.0185 30.4486 14.9156 30.103C14.8294 29.8389 14.8887 29.5697 15.0566 29.3856C15.1869 29.2404 15.4999 29.0256 16.1485 29.1704L16.1562 29.1728C16.523 29.2712 16.7402 29.5765 16.7135 29.9575C16.692 30.3486 16.3959 30.8056 15.9093 30.8726C15.8915 30.8755 15.8761 30.8706 15.8583 30.8735C15.8096 30.8667 15.7634 30.8521 15.7172 30.8376ZM16.0892 29.4395C15.7098 29.354 15.4068 29.4026 15.2514 29.5738C15.1461 29.693 15.1107 29.8596 15.1672 30.0298C15.2563 30.3117 15.5256 30.5319 15.8896 30.6125C16.2129 30.5534 16.4245 30.2305 16.4476 29.9416C16.4584 29.8265 16.4407 29.5331 16.0892 29.4395Z" fill="#324840"/>
<path d="M10.5764 27.6896C10.3299 27.6121 10.0476 27.3794 9.86502 27.1527C9.73719 26.994 9.58495 26.7514 9.62725 26.5362C9.65943 26.3262 9.83267 26.1522 10.0939 26.0481C10.4212 25.9225 10.9063 25.9143 11.1987 26.1417C11.4161 26.3116 11.5028 26.6013 11.4342 26.9268C11.3463 27.3139 11.0659 27.6404 10.7556 27.7121C10.7454 27.7174 10.73 27.7125 10.7199 27.7178C10.6713 27.711 10.6226 27.7041 10.5764 27.6896ZM10.8637 26.2649C10.6712 26.2043 10.4057 26.2139 10.185 26.2968C10.0124 26.3611 9.90192 26.4702 9.88341 26.5829C9.87217 26.6725 9.94124 26.8296 10.0666 26.996C10.2728 27.2555 10.5619 27.4396 10.7079 27.4601C10.9112 27.4055 11.1087 27.1545 11.1704 26.8776C11.1942 26.7751 11.2279 26.5064 11.0312 26.3514C10.9845 26.3113 10.9253 26.2842 10.8637 26.2649Z" fill="#324840"/>
<path d="M33.7974 35.3096C33.7032 35.3043 33.5955 35.2576 33.4863 35.1961C33.373 35.1323 33.2421 35.0432 33.0976 34.936C32.8084 34.7217 32.4533 34.4267 32.0575 34.0978L32.0542 34.0951C31.2601 33.4354 30.2963 32.6346 29.3315 32.0326C28.3677 31.4343 27.0515 30.8554 25.9392 30.619C25.3817 30.5005 24.8878 30.4708 24.5185 30.5585C24.1564 30.6444 23.9253 30.8384 23.8521 31.1724C23.7803 31.5003 23.9665 31.8906 24.3642 32.3237C24.7561 32.7504 25.3254 33.1884 25.9465 33.6037C26.5665 34.0182 27.2322 34.4063 27.8134 34.7342C28.0037 34.8416 28.1855 34.9429 28.3539 35.0367C28.6968 35.2277 28.9836 35.3874 29.1706 35.5034L29.171 35.5037C29.7346 35.8566 30.3491 36.3929 30.7551 36.9127C30.9575 37.1718 31.1144 37.4348 31.183 37.6749C31.252 37.9165 31.2361 38.1576 31.0557 38.3336L31.0549 38.3344C30.8971 38.4854 30.7234 38.5591 30.5223 38.5558C30.3286 38.5526 30.1208 38.4779 29.8904 38.3594C29.6588 38.2402 29.3916 38.07 29.0776 37.8632C28.995 37.8088 28.9091 37.7519 28.8194 37.6924C28.5664 37.5247 28.2839 37.3374 27.9642 37.1339C27.1161 36.5941 25.7916 36.2032 24.613 36.0415C24.0248 35.9608 23.4796 35.9382 23.0545 35.9805C22.8418 36.0017 22.6635 36.0387 22.5263 36.0903C22.3875 36.1426 22.3029 36.2052 22.2606 36.2694C22.0523 36.5853 22.1508 36.9542 22.3334 37.2741C22.4229 37.4308 22.5276 37.5663 22.6106 37.6631C22.6519 37.7113 22.6875 37.7495 22.7125 37.7755C22.725 37.7884 22.7348 37.7983 22.7414 37.8048L22.7487 37.8119L22.7504 37.8136L22.7507 37.8138L22.7508 37.8139L22.7508 37.8139L22.7508 37.8139L22.9208 37.9748L22.6903 38.0144L22.6902 38.0144L22.6902 38.0144L22.6901 38.0144L22.6901 38.0145L22.6892 38.0146L22.6835 38.0157C22.6815 38.0161 22.6791 38.0166 22.6764 38.0172C22.6717 38.0182 22.666 38.0195 22.6593 38.0211C22.6378 38.0263 22.6065 38.0345 22.5689 38.0469C22.4932 38.0718 22.3946 38.1124 22.2997 38.1749C22.1135 38.2975 21.9441 38.5005 21.9812 38.851C21.9837 38.8747 21.999 38.9184 22.0414 38.985C22.0822 39.0494 22.142 39.1256 22.22 39.2127C22.376 39.3866 22.5968 39.5948 22.8629 39.825C23.3945 40.2848 24.0971 40.8238 24.7992 41.339C25.5009 41.854 26.2001 42.3437 26.724 42.7049C26.9859 42.8854 27.2039 43.0338 27.3565 43.1369C27.4327 43.1885 27.4926 43.2288 27.5334 43.2562L27.5799 43.2874L27.5918 43.2953L27.5948 43.2973L27.5955 43.2978L27.5957 43.298L27.5307 43.3955L27.5958 43.298L27.6432 43.3296L27.6476 43.3865L27.6476 43.3866L27.6476 43.3868L27.6477 43.3879L27.6481 43.3925L27.6495 43.4108L27.6557 43.4829C27.6613 43.5462 27.6699 43.6393 27.6819 43.7581C27.7059 43.9956 27.7435 44.3356 27.798 44.745C27.9069 45.5641 28.0828 46.6596 28.3512 47.7671C28.8776 49.94 30.0892 51.4 35.7658 55.5091C39.0641 54.7977 40.4272 52.5578 40.9693 50.4794C41.2422 49.433 41.306 48.429 41.3014 47.6857C41.299 47.3144 41.2796 47.0088 41.2608 46.7965C41.2514 46.6903 41.2422 46.6076 41.2354 46.5516C41.2343 46.5425 41.2332 46.5342 41.2322 46.5266L41.2274 46.5241C41.1887 46.5044 41.133 46.4757 41.0641 46.4395C40.9265 46.3671 40.7364 46.2647 40.5266 46.1448C40.1095 45.9064 39.6054 45.5934 39.2835 45.3059C38.9675 45.0237 38.6655 44.7136 38.4802 44.249C38.295 43.7846 38.2313 43.1794 38.3627 42.313C38.6199 40.6177 38.7827 37.5824 37.6459 34.3953C36.5134 31.2204 34.3945 29.6107 32.4975 28.4035L32.4973 28.4034C31.5505 27.7978 30.7313 27.4734 30.1286 27.4158C29.8279 27.387 29.5908 27.4255 29.4191 27.5184C29.2511 27.6091 29.1353 27.7571 29.0822 27.9727C29.0628 28.0517 29.0889 28.1874 29.1891 28.3884C29.286 28.5828 29.4401 28.8148 29.6378 29.0739C30.0328 29.5917 30.59 30.2026 31.1766 30.8141C31.5805 31.2352 31.9963 31.6543 32.3809 32.042C32.5547 32.2173 32.7222 32.3861 32.8794 32.5458C33.379 33.0536 33.7828 33.4772 33.9387 33.7109C34.2397 34.1623 34.3776 34.5517 34.356 34.8382C34.345 34.9851 34.291 35.1126 34.187 35.1995C34.0838 35.2858 33.9474 35.3188 33.7974 35.3096ZM33.7974 35.3096C33.7975 35.3096 33.7977 35.3096 33.7978 35.3096L33.8043 35.1927L33.7971 35.3096C33.7972 35.3096 33.7973 35.3096 33.7974 35.3096Z" fill="#6DA0E1" stroke="#141526" stroke-width="0.234375"/>
<path d="M28.3185 41.1587C28.3339 41.1539 28.3416 41.1514 28.3546 41.1389C28.4167 41.094 28.4257 41.015 28.3808 40.9529C27.3701 39.5695 25.5185 38.5267 22.8662 37.8713C22.7925 37.8521 22.7227 37.8995 22.7089 37.9631C22.6898 38.0368 22.7371 38.1065 22.8007 38.1204C25.3894 38.762 27.1956 39.7683 28.1662 41.105C28.2087 41.1594 28.2646 41.1757 28.3185 41.1587Z" fill="#324840"/>
<path d="M22.9271 39.1898C23.0658 39.1462 23.1745 39.0612 23.2378 38.9397C23.3487 38.7271 23.315 38.4584 23.1547 38.2718C22.9969 38.0929 22.7656 38.0302 22.5114 38.1102C22.5037 38.1126 22.496 38.115 22.4883 38.1174C22.2414 38.2205 22.0944 38.4529 22.1257 38.7139C22.157 38.9749 22.3477 39.1774 22.6175 39.2279C22.6175 39.2279 22.6252 39.2255 22.6276 39.2332C22.7427 39.2224 22.8424 39.2164 22.9271 39.1898ZM22.5865 38.3489C22.779 38.2884 22.8851 38.3566 22.9426 38.4316C23.0353 38.5379 23.0529 38.7016 22.9948 38.813C22.9262 38.9446 22.7702 38.9598 22.6502 38.9553C22.4695 38.919 22.3951 38.79 22.3843 38.6749C22.3836 38.5651 22.4243 38.4253 22.5865 38.3489Z" fill="#324840"/>
<path d="M23.0406 37.505C23.0637 37.4977 23.0868 37.4905 23.1075 37.4755L23.1152 37.4731C23.5122 37.2551 23.735 36.9141 23.7156 36.5563C23.6997 36.2904 23.5528 36.0658 23.3272 35.9675C23.051 35.8427 22.6996 35.9363 22.3706 36.2091C22.3629 36.2115 22.3653 36.2192 22.3576 36.2216C22.1182 36.4831 22.1995 36.957 22.4115 37.2542C22.594 37.4846 22.8172 37.5752 23.0406 37.505ZM22.9914 37.2411C22.8268 37.3098 22.6937 37.1824 22.6314 37.092C22.4667 36.8645 22.4314 36.537 22.5487 36.3985C22.7973 36.1934 23.0385 36.126 23.2236 36.2032C23.3605 36.2617 23.4475 36.4036 23.455 36.5621C23.4685 36.8202 23.2956 37.0778 22.9914 37.2411Z" fill="#324840"/>
<path d="M24.9976 32.2067C25.3982 32.0808 25.6963 31.8177 25.7992 31.4721C25.8854 31.208 25.8262 30.9389 25.6582 30.7547C25.5279 30.6095 25.2149 30.3948 24.5664 30.5395L24.5587 30.5419C24.1918 30.6404 23.9747 30.9457 24.0014 31.3266C24.0228 31.7177 24.3189 32.1747 24.8055 32.2418C24.8233 32.2446 24.8387 32.2398 24.8566 32.2426C24.9052 32.2358 24.9514 32.2213 24.9976 32.2067ZM24.6256 30.8086C25.005 30.7232 25.3081 30.7717 25.4635 30.9429C25.5687 31.0622 25.6042 31.2288 25.5477 31.3989C25.4586 31.6809 25.1893 31.901 24.8253 31.9816C24.502 31.9225 24.2904 31.5997 24.2672 31.3107C24.2564 31.1956 24.2742 30.9023 24.6256 30.8086Z" fill="#324840"/>
<path d="M30.1384 29.0587C30.3849 28.9812 30.6672 28.7485 30.8498 28.5218C30.9777 28.3631 31.1299 28.1205 31.0876 27.9053C31.0554 27.6954 30.8822 27.5213 30.6209 27.4173C30.2936 27.2917 29.8086 27.2834 29.5161 27.5108C29.2987 27.6808 29.2121 27.9704 29.2806 28.2959C29.3685 28.683 29.649 29.0095 29.9593 29.0812C29.9694 29.0865 29.9848 29.0817 29.9949 29.0869C30.0436 29.0801 30.0922 29.0733 30.1384 29.0587ZM29.8511 27.634C30.0437 27.5734 30.3091 27.5831 30.5299 27.666C30.7024 27.7302 30.8129 27.8393 30.8314 27.952C30.8427 28.0416 30.7736 28.1987 30.6482 28.3652C30.442 28.6247 30.1529 28.8087 30.007 28.8292C29.8036 28.7747 29.6062 28.5236 29.5445 28.2468C29.5207 28.1442 29.4869 27.8755 29.6837 27.7205C29.7303 27.6805 29.7895 27.6534 29.8511 27.634Z" fill="#324840"/>
</g>
<path d="M33.7891 12.1787L40 7.68652" stroke="#141526" stroke-width="2.68672" stroke-linecap="square"/>
<path d="M17.15 14.4149C17.15 14.4149 18.8906 13.5953 21.4803 13.6389C24.0699 13.6826 25.8175 14.4405 25.8175 14.4405" stroke="#141526" stroke-width="2.68672" stroke-linejoin="round"/>
<path d="M0.946008 8.98079C0.344284 8.54678 -0.495348 8.68274 -0.929362 9.28446C-1.36338 9.88618 -1.22742 10.7258 -0.625696 11.1598L0.946008 8.98079ZM-0.625696 11.1598L1.96834 13.0309L3.54005 10.8518L0.946008 8.98079L-0.625696 11.1598Z" fill="#141526"/>
<path d="M19.4319 13.6479C19.6089 18.6913 15.1915 21.7279 10.4321 21.5077C3.46451 20.9174 1.98545 17.4116 2.19645 12.8505C2.75399 4.60019 6.44422 4.61014 11.2037 4.83032C16.1179 5.45942 19.6429 9.08687 19.4319 13.6479Z" fill="white"/>
<path d="M13.4335 16.9024L13.433 16.9024L13.4335 16.8913C13.4923 15.6216 12.3686 14.4578 11.0011 14.3945L11.0011 14.3947L10.9933 14.3939C9.65513 14.2547 8.49691 15.2179 8.4302 16.6598C8.40031 17.3058 8.59115 17.9053 8.9828 18.3513C9.37337 18.7962 9.97296 19.099 10.7817 19.1364C11.4725 19.1684 12.1523 18.9827 12.649 18.6041C13.1419 18.2284 13.4601 17.6595 13.4335 16.9024Z" fill="#6DA0E1" stroke="#141526" stroke-width="0.273437"/>
<ellipse cx="1.11202" cy="1.07931" rx="1.11202" ry="1.07931" transform="matrix(-0.998932 -0.0462137 -0.0462137 0.998932 12.0938 15.7441)" fill="#141526"/>
<path d="M17.1278 7.76907C18.5189 9.47689 19.2424 11.9722 18.8434 15.5269C15.381 13.6531 12.6679 12.9052 10.1468 12.9422C7.64321 12.979 5.34466 13.79 2.70976 15.0105C2.63673 13.205 2.61549 11.6658 2.7436 10.3683C2.87651 9.02212 3.16921 7.9487 3.72139 7.11369C4.81785 5.45564 6.97989 4.67999 11.1813 4.68575C13.5843 5.08557 15.7111 6.0299 17.1278 7.76907Z" fill="#3590F3" stroke="#141526" stroke-width="0.273437"/>
<path d="M19.0337 13.4305L19.0325 13.4562L19.0335 13.4818C19.1185 15.8555 18.1197 17.7385 16.5318 19.0161C14.9343 20.3013 12.723 20.9839 10.4021 20.8792C6.89779 20.5817 4.91459 19.5706 3.80984 18.2003C2.69652 16.8195 2.36629 14.9417 2.47165 12.6643C2.60463 9.78987 3.63811 7.86404 5.14744 6.67087C6.66644 5.47004 8.74959 4.94658 11.0974 5.05081C15.9119 5.67402 19.2312 9.16168 19.0337 13.4305Z" stroke="#141526" stroke-width="1.25"/>
<path d="M22.8606 14.0298C22.7505 17.166 25.4974 19.0542 28.4569 18.9173C32.7896 18.5502 33.7093 16.3702 33.5781 13.534C33.2314 8.40364 30.9367 8.40982 27.9772 8.54674C24.9213 8.93794 22.7294 11.1936 22.8606 14.0298Z" fill="white"/>
<path d="M25.9918 16.2494L25.9923 16.2494L25.9918 16.2382C25.9567 15.4803 26.6301 14.7779 27.4551 14.7397L27.4551 14.7399L27.4629 14.7391C28.265 14.6557 28.9596 15.2317 28.9997 16.0991C29.0178 16.4892 28.9025 16.8484 28.6689 17.1144C28.4364 17.3792 28.0773 17.5624 27.5867 17.5851C27.1672 17.6045 26.757 17.4915 26.4593 17.2646C26.1656 17.0407 25.9759 16.7026 25.9918 16.2494Z" fill="#6DA0E1" stroke="#141526" stroke-width="0.273437"/>
<ellipse cx="27.4913" cy="16.1658" rx="0.691491" ry="0.671153" transform="rotate(-2.64879 27.4913 16.1658)" fill="#141526"/>
<path d="M24.3272 10.4072C23.4831 11.4434 23.035 12.9565 23.2633 15.1166C25.389 13.9756 27.066 13.5167 28.6288 13.5396C30.1742 13.5623 31.5928 14.0562 33.2041 14.7981C33.247 13.7091 33.2576 12.7804 33.1802 11.9959C33.0979 11.1628 32.9173 10.5048 32.5805 9.99551C31.9148 8.98887 30.5969 8.50586 27.9891 8.50891C26.504 8.7567 25.1967 9.33978 24.3272 10.4072Z" fill="#3590F3" stroke="#141526" stroke-width="0.273437"/>
<path d="M23.1449 13.8936L23.1457 13.9112L23.145 13.9289C23.0926 15.3912 23.7074 16.55 24.6854 17.3368C25.6699 18.1288 27.0345 18.5509 28.4686 18.4864C30.6414 18.3018 31.8615 17.6756 32.5386 16.8358C33.2216 15.9887 33.4271 14.8333 33.3617 13.421C33.2795 11.6431 32.6409 10.4576 31.7134 9.72433C30.7791 8.98577 29.4951 8.66147 28.0425 8.72565C25.066 9.11166 23.0233 11.2654 23.1449 13.8936Z" stroke="#141526" stroke-width="0.859375"/>
<path d="M18.8898 18.1089C18.8898 18.1089 17.6103 19.283 18.0954 20.5861C18.6081 21.9633 20.3011 22.038 20.3011 22.038" stroke="#141526" stroke-width="0.390625" stroke-linecap="round"/>
<path d="M23.3138 17.6909C23.3138 17.6909 24.8628 18.4761 24.7474 19.8618C24.6255 21.3262 23.0154 21.8551 23.0154 21.8551" stroke="#141526" stroke-width="0.390625" stroke-linecap="round"/>
<path d="M23.75 7.7028C26.5234 7.7028 27.6965 6.11492 29.082 5.90979C30.4356 5.70939 30.7126 6.6521 32.0703 6.6521" stroke="#141526" stroke-width="1.17187" stroke-linecap="round"/>
<path d="M17.4284 5.43905C14.9766 4.42584 12.3594 3.01959 9.91797 2.43363C7.47656 1.84766 6.34375 3.7424 4.68359 4.21008" stroke="#141526" stroke-width="1.17187" stroke-linecap="round"/>
</g>
<defs>
<filter id="filter0_ii_1350_32648" x="-0.210349" y="0.289651" width="40.4207" height="40.4207" filterUnits="userSpaceOnUse" color-interpolation-filters="sRGB">
<feFlood flood-opacity="0" result="BackgroundImageFix"/>
<feBlend mode="normal" in="SourceGraphic" in2="BackgroundImageFix" result="shape"/>
<feColorMatrix in="SourceAlpha" type="matrix" values="0 0 0 0 0 0 0 0 0 0 0 0 0 0 0 0 0 0 127 0" result="hardAlpha"/>
<feOffset dx="0.210349" dy="0.210349"/>
<feGaussianBlur stdDeviation="0.105175"/>
<feComposite in2="hardAlpha" operator="arithmetic" k2="-1" k3="1"/>
<feColorMatrix type="matrix" values="0 0 0 0 1 0 0 0 0 1 0 0 0 0 1 0 0 0 0.2 0"/>
<feBlend mode="normal" in2="shape" result="effect1_innerShadow_1350_32648"/>
<feColorMatrix in="SourceAlpha" type="matrix" values="0 0 0 0 0 0 0 0 0 0 0 0 0 0 0 0 0 0 127 0" result="hardAlpha"/>
<feOffset dx="-0.210349" dy="-0.210349"/>
<feGaussianBlur stdDeviation="0.105175"/>
<feComposite in2="hardAlpha" operator="arithmetic" k2="-1" k3="1"/>
<feColorMatrix type="matrix" values="0 0 0 0 0 0 0 0 0 0 0 0 0 0 0 0 0 0 0.05 0"/>
<feBlend mode="normal" in2="effect1_innerShadow_1350_32648" result="effect2_innerShadow_1350_32648"/>
</filter>
<linearGradient id="paint0_linear_1350_32648" x1="20" y1="19.3291" x2="20" y2="40.501" gradientUnits="userSpaceOnUse">
<stop stop-color="#42E5C2"/>
<stop offset="1" stop-color="#30AF98"/>
</linearGradient>
<linearGradient id="paint1_linear_1350_32648" x1="20" y1="19.3291" x2="20" y2="40.501" gradientUnits="userSpaceOnUse">
<stop offset="0.328125" stop-color="white"/>
<stop offset="1" stop-opacity="0.1"/>
</linearGradient>
<clipPath id="clip0_1350_32648">
<rect width="40" height="40" fill="white" transform="translate(0 0.5)"/>
</clipPath>
</defs>
</svg>
